<svg width="21" height="21" viewBox="0 0 21 21" fill="none" xmlns="http://www.w3.org/2000/svg">
<path d="M13.8225 10.8719C14.8185 10.1668 15.5643 9.16311 15.9521 8.00605C16.3398 6.84899 16.3494 5.59856 15.9794 4.43568C15.6095 3.27281 14.8791 2.25779 13.8941 1.53749C12.909 0.81718 11.7204 0.428942 10.5001 0.428942C9.27976 0.428942 8.0911 0.81718 7.10605 1.53749C6.121 2.25779 5.39066 3.27281 5.0207 4.43568C4.65073 5.59856 4.66032 6.84899 5.04808 8.00605C5.43585 9.16311 6.18167 10.1668 7.17765 10.8719C5.23539 11.4379 3.52885 12.6181 2.31372 14.2356C1.09859 15.853 0.440302 17.8207 0.4375 19.8437C0.4375 20.0344 0.513225 20.2172 0.648017 20.352C0.782809 20.4868 0.965626 20.5625 1.15625 20.5625H19.8438C20.0344 20.5625 20.2172 20.4868 20.352 20.352C20.4868 20.2172 20.5625 20.0344 20.5625 19.8437C20.5597 17.8207 19.9014 15.8531 18.6863 14.2356C17.4712 12.6181 15.7647 11.438 13.8225 10.8719ZM6.1875 6.1875C6.1875 5.33457 6.44042 4.50079 6.91429 3.7916C7.38815 3.08242 8.06167 2.52967 8.84968 2.20327C9.63768 1.87687 10.5048 1.79146 11.3413 1.95786C12.1779 2.12426 12.9463 2.53499 13.5494 3.1381C14.1525 3.74122 14.5632 4.50963 14.7296 5.34617C14.896 6.18272 14.8106 7.04982 14.4842 7.83782C14.1578 8.62583 13.6051 9.29935 12.8959 9.77321C12.1867 10.2471 11.3529 10.5 10.5 10.5C9.35665 10.4987 8.26051 10.0439 7.45204 9.23546C6.64357 8.42699 6.1888 7.33085 6.1875 6.1875ZM1.90734 19.125C2.08898 17.1616 2.9968 15.3366 4.45312 14.0072C5.90944 12.6778 7.80943 11.9398 9.78125 11.9375H11.2188C13.1906 11.9398 15.0906 12.6778 16.5469 14.0072C18.0032 15.3366 18.911 17.1616 19.0927 19.125H1.90734Z" fill="black"/>
</svg>
