<svg width="22" height="21" viewBox="0 0 22 21" fill="none" xmlns="http://www.w3.org/2000/svg">
<path d="M20.0938 20.1228L18.7551 5.89192C18.7186 5.50329 18.3773 5.2056 17.9686 5.2056H15.2079V4.01709C15.2079 1.80207 13.3201 0 10.9998 0C8.67947 0 6.7919 1.80207 6.7919 4.01709V5.2056H4.02931C3.62059 5.2056 3.27936 5.50329 3.24282 5.89192L1.89885 20.1788C1.87905 20.3897 1.95297 20.5986 2.10258 20.7548C2.25219 20.911 2.46371 20.9999 2.68533 20.9999H19.3127C19.3133 20.9999 19.3142 20.9999 19.3148 20.9999C19.751 20.9999 20.1045 20.6624 20.1045 20.2461C20.1043 20.2042 20.1008 20.1629 20.0938 20.1228ZM8.37119 4.01709C8.37119 2.6333 9.55039 1.5075 10.9999 1.5075C12.4494 1.5075 13.6287 2.6333 13.6287 4.01709V5.2056H8.37119V4.01709ZM3.5491 19.4925L4.75125 6.71311H6.7919V8.06101C6.7919 8.47728 7.14535 8.81476 7.58155 8.81476C8.01774 8.81476 8.37119 8.47728 8.37119 8.06101V6.71311H13.6287V8.06101C13.6287 8.47728 13.9822 8.81476 14.4184 8.81476C14.8546 8.81476 15.208 8.47728 15.208 8.06101V6.71311H17.2468L18.4489 19.4925H3.5491V19.4925Z" fill="black"/>
</svg>
