<svg width="21" height="21" viewBox="0 0 20 20" fill="none" xmlns="http://www.w3.org/2000/svg">
<path d="M8.40003 15.7419C10.1907 15.7419 11.8186 15.107 13.0884 14.0326L18.7861 19.7302C18.9163 19.8605 19.0791 19.9256 19.2582 19.9256C19.4372 19.9256 19.6 19.8605 19.7303 19.7302C19.9907 19.4698 19.9907 19.0465 19.7303 18.786L14.0326 13.0884C15.0907 11.8186 15.7419 10.1744 15.7419 8.4C15.7419 4.34651 12.4535 1.05814 8.40003 1.05814C4.36282 1.05814 1.05817 4.36279 1.05817 8.4C1.05817 12.4535 4.36282 15.7419 8.40003 15.7419ZM8.40003 2.39302C11.721 2.39302 14.407 5.09535 14.407 8.4C14.407 11.7209 11.721 14.407 8.40003 14.407C5.0791 14.407 2.39305 11.7047 2.39305 8.4C2.39305 5.09535 5.09538 2.39302 8.40003 2.39302Z" fill="black"/>
</svg>
